<svg width="21" height="20" viewBox="0 0 21 20" fill="none" xmlns="http://www.w3.org/2000/svg">
<path fill-rule="evenodd" clip-rule="evenodd" d="M19.5 10.2046C19.5 9.56642 19.4416 8.95278 19.333 8.36369H10.6837V11.8451H15.6262C15.4133 12.9701 14.7662 13.9233 13.7936 14.5615V16.8197H16.7616C18.4981 15.2528 19.5 12.9455 19.5 10.2046Z" fill="#4285F4"/>
<path fill-rule="evenodd" clip-rule="evenodd" d="M10.6836 19C13.1632 19 15.2421 18.1942 16.7616 16.8197L13.7936 14.5615C12.9712 15.1015 11.9192 15.4204 10.6836 15.4204C8.29168 15.4204 6.2671 13.8372 5.54493 11.7099H2.47674V14.0418C3.98788 16.9832 7.09363 19 10.6836 19Z" fill="#34A853"/>
<path fill-rule="evenodd" clip-rule="evenodd" d="M5.54493 11.7099C5.36125 11.1699 5.25696 10.5933 5.25696 10.0001C5.25696 9.40693 5.36132 8.8301 5.54499 8.2901V5.95827H2.47681C1.85482 7.17327 1.5 8.54783 1.5 10.0001C1.5 11.4524 1.85476 12.8268 2.47674 14.0418L5.54493 11.7099Z" fill="#FBBC05"/>
<path fill-rule="evenodd" clip-rule="evenodd" d="M10.6836 4.57957C12.0319 4.57957 13.2425 5.03366 14.1943 5.92549L16.8283 3.34411C15.2379 1.89182 13.159 1 10.6836 1C7.09363 1 3.98794 3.01688 2.47681 5.95827L5.54499 8.2901C6.26716 6.16281 8.29168 4.57957 10.6836 4.57957Z" fill="#EA4335"/>
</svg>
