<svg width="88" height="16" viewBox="0 0 88 16" fill="none" xmlns="http://www.w3.org/2000/svg">
<g clip-path="url(#clip0_1019_1081)">
<path d="M63.8541 10.6957C63.8541 11.8502 62.9092 12.7894 61.7476 12.7894C60.5859 12.7894 59.641 11.8502 59.641 10.6942L59.638 4.23828H56.409L56.412 10.6942C56.412 13.6178 58.8059 15.9971 61.7476 15.9971C64.6892 15.9971 67.0832 13.6178 67.0832 10.6942L67.0862 4.23828H63.8571L63.8541 10.6957Z" fill="#F0F0F0"/>
<path d="M36.1183 3.89581C35.36 3.89581 34.6377 4.05583 33.9832 4.33847V0.00012207H30.7542V15.722H33.9832L33.9862 9.22267C33.9862 8.05471 34.9417 7.10359 36.1183 7.10359C37.295 7.10359 38.2505 8.05471 38.2505 9.22267L38.2535 15.722H41.4825L41.4795 9.22267C41.4795 6.28407 39.075 3.89432 36.1183 3.89432V3.89581Z" fill="#F0F0F0"/>
<path d="M48.9382 3.89581C45.6038 3.89581 42.8894 6.61008 42.8894 9.94797C42.8894 13.2858 45.6023 16.0001 48.9382 16.0001C52.2741 16.0001 54.987 13.2858 54.987 9.94797C54.987 6.61008 52.2741 3.89581 48.9382 3.89581ZM48.9382 12.7908C47.3839 12.7908 46.1185 11.5152 46.1185 9.94797C46.1185 8.38072 47.3839 7.10508 48.9382 7.10508C50.4926 7.10508 51.758 8.38072 51.758 9.94797C51.758 11.5152 50.4926 12.7908 48.9382 12.7908Z" fill="#F0F0F0"/>
<path d="M27.8682 6.62055H24.6391V10.1394H21.9202L25.1793 0.00012207H21.6704L17.5325 12.1867V13.3472H24.6391V15.722H27.8682V13.3472H29.3172V10.1394H27.8682V6.62055Z" fill="#F0F0F0"/>
<path d="M87.9245 11.4988C87.458 9.27202 85.4598 8.76655 84.1808 8.53475C84.074 8.51531 83.9717 8.49736 83.8754 8.48091C83.7159 8.454 83.5594 8.42708 83.4059 8.39717C81.8847 8.09957 81.7478 7.8932 81.7207 7.63149C81.7147 7.53877 81.7282 7.47746 81.7658 7.40418C81.9659 6.97498 82.4986 6.66542 83.1306 6.66542C83.7625 6.66542 84.2591 6.95105 84.4743 7.35333C84.5796 7.50587 84.5826 7.66439 84.5826 7.77057C84.5826 7.77057 84.5826 7.77505 84.5826 7.77804H87.8116C87.8116 5.45409 85.9082 3.89282 83.0764 3.89282C81.6093 3.89282 80.2792 4.39829 79.4291 5.28062C78.7324 6.00442 78.4044 6.94357 78.5052 7.9261C78.7264 10.0646 80.4899 10.8243 81.8441 11.1728C82.789 11.4958 85.4011 11.4808 84.6804 12.4933C84.3915 12.8686 83.8603 13.1243 83.2464 13.1243C82.6927 13.1243 82.2067 12.9165 81.9028 12.6009C81.7011 12.3916 81.5762 12.067 81.5762 11.7874H78.3442C78.3442 11.8906 78.3547 12.4424 78.5864 13.1109C79.2214 14.9443 80.8585 15.9956 83.0749 15.9956C84.8053 15.9956 86.3009 15.4199 87.1782 14.4149C87.8824 13.6089 88.1472 12.5725 87.9215 11.4958L87.9245 11.4988Z" fill="#F0F0F0"/>
<path d="M72.0336 9.71916C72.0336 8.46297 72.7513 7.38025 74.9707 7.38025H77.8206V4.17098H74.9707C72.0336 4.17098 72.0336 6.50989 72.0336 6.50989V4.17098H68.8045V15.722H72.0336V9.71916Z" fill="#F0F0F0"/>
<path d="M14.3802 4.37436L9.89026 4.36689V2.82955H14.3787V0.00012207H7.04341V4.3624L0.00451404 4.35044L0 7.18135L14.3757 7.20528L14.3802 4.37436Z" fill="#F97931"/>
<path d="M14.4194 8.77253L0.0436357 8.7486L0.0391217 11.5795L4.52909 11.587V13.1243H0.0406264V15.9538H7.37594V11.5915L14.4148 11.6034L14.4194 8.77253Z" fill="#F97931"/>
</g>
<defs>
<clipPath id="clip0_1019_1081">
<rect width="88" height="16" fill="white"/>
</clipPath>
</defs>
</svg>
