<svg width="88" height="16" viewBox="0 0 88 16" fill="none" xmlns="http://www.w3.org/2000/svg">
<g clip-path="url(#clip0_223_899)">
<path d="M63.8541 10.6956C63.8541 11.8501 62.9092 12.7892 61.7476 12.7892C60.5859 12.7892 59.641 11.8501 59.641 10.6941L59.638 4.23815H56.409L56.412 10.6941C56.412 13.6177 58.8059 15.997 61.7476 15.997C64.6892 15.997 67.0832 13.6177 67.0832 10.6941L67.0862 4.23815H63.8571L63.8541 10.6956Z" fill="black"/>
<path d="M36.1183 3.89569C35.36 3.89569 34.6377 4.05571 33.9832 4.33835V0H30.7542V15.7218H33.9832L33.9862 9.22254C33.9862 8.05458 34.9417 7.10347 36.1183 7.10347C37.295 7.10347 38.2505 8.05458 38.2505 9.22254L38.2535 15.7218H41.4825L41.4795 9.22254C41.4795 6.28395 39.075 3.8942 36.1183 3.8942V3.89569Z" fill="black"/>
<path d="M48.9382 3.89569C45.6038 3.89569 42.8894 6.60996 42.8894 9.94784C42.8894 13.2857 45.6023 16 48.9382 16C52.2741 16 54.987 13.2857 54.987 9.94784C54.987 6.60996 52.2741 3.89569 48.9382 3.89569ZM48.9382 12.7907C47.3839 12.7907 46.1185 11.5151 46.1185 9.94784C46.1185 8.3806 47.3839 7.10496 48.9382 7.10496C50.4926 7.10496 51.758 8.3806 51.758 9.94784C51.758 11.5151 50.4926 12.7907 48.9382 12.7907Z" fill="black"/>
<path d="M27.8682 6.62043H24.6391V10.1393H21.9202L25.1793 0H21.6704L17.5325 12.1866V13.347H24.6391V15.7218H27.8682V13.347H29.3172V10.1393H27.8682V6.62043Z" fill="black"/>
<path d="M87.9245 11.4986C87.458 9.27189 85.4598 8.76643 84.1808 8.53463C84.074 8.51519 83.9717 8.49724 83.8754 8.48079C83.7159 8.45387 83.5594 8.42696 83.4059 8.39705C81.8847 8.09945 81.7478 7.89307 81.7207 7.63137C81.7147 7.53865 81.7282 7.47733 81.7658 7.40406C81.9659 6.97486 82.4986 6.6653 83.1306 6.6653C83.7625 6.6653 84.2591 6.95093 84.4743 7.35321C84.5796 7.50575 84.5826 7.66427 84.5826 7.77045C84.5826 7.77045 84.5826 7.77493 84.5826 7.77792H87.8116C87.8116 5.45397 85.9082 3.8927 83.0764 3.8927C81.6093 3.8927 80.2792 4.39817 79.4291 5.28049C78.7324 6.0043 78.4044 6.94345 78.5052 7.92597C78.7264 10.0645 80.4899 10.8242 81.8441 11.1726C82.789 11.4957 85.4011 11.4807 84.6804 12.4931C84.3915 12.8685 83.8603 13.1242 83.2464 13.1242C82.6927 13.1242 82.2067 12.9163 81.9028 12.6008C81.7011 12.3914 81.5762 12.0669 81.5762 11.7873H78.3442C78.3442 11.8905 78.3547 12.4423 78.5864 13.1108C79.2214 14.9442 80.8585 15.9955 83.0749 15.9955C84.8053 15.9955 86.3009 15.4198 87.1782 14.4148C87.8824 13.6087 88.1472 12.5724 87.9215 11.4957L87.9245 11.4986Z" fill="black"/>
<path d="M72.0336 9.71904C72.0336 8.46285 72.7513 7.38013 74.9707 7.38013H77.8206V4.17086H74.9707C72.0336 4.17086 72.0336 6.50977 72.0336 6.50977V4.17086H68.8045V15.7218H72.0336V9.71904Z" fill="black"/>
<path d="M14.3802 4.37424L9.89026 4.36676V2.82942H14.3787V0H7.04341V4.36228L0.00451404 4.35031L0 7.18123L14.3757 7.20516L14.3802 4.37424Z" fill="#F85226"/>
<path d="M14.4194 8.77241L0.0436357 8.74848L0.0391217 11.5794L4.52909 11.5869V13.1242H0.0406264V15.9536H7.37594V11.5914L14.4148 11.6033L14.4194 8.77241Z" fill="#F85226"/>
</g>
<defs>
<clipPath id="clip0_223_899">
<rect width="88" height="16" fill="white"/>
</clipPath>
</defs>
</svg>
